<svg xmlns="http://www.w3.org/2000/svg" viewBox="0 0 40 40"><defs><radialGradient id="s" cx="38%" cy="32%" r="75%"><stop offset="0" stop-color="#6d7672"/><stop offset="0.65" stop-color="#3a423f"/><stop offset="1" stop-color="#1f2523"/></radialGradient><linearGradient id="m" x1="0" y1="0" x2="1" y2="1"><stop offset="0" stop-color="#9ccf5a"/><stop offset="1" stop-color="#4f8a2c"/></linearGradient></defs><ellipse cx="20" cy="21" rx="17.5" ry="16" fill="url(#s)" stroke="#1a1f1d" stroke-opacity="0.5"/><path d="M5 16c3-7 10-11 17-10.5 4 .3 7 1.8 9.4 4-4.4-1.6-9.6-1.2-14 .6S9.6 15 5 16z" fill="url(#m)"/><path d="M15.6 19.5v-3a4.4 4.4 0 0 1 8.8 0v3" fill="none" stroke="#e9efe4" stroke-width="2.1" stroke-linecap="round"/><rect x="13" y="19.2" width="14" height="10.4" rx="3" fill="#e9efe4"/><path d="M20 21.6c-1.9 1.3-2.2 3.6-.1 5.6 2.1-2 1.8-4.3.1-5.6z" fill="#5b9a34"/><path d="M20 22.6v4.4" stroke="#e9efe4" stroke-width="0.6"/><path d="M3.5 27c5 3.5 10 2 13.5-1.5M36.5 24.5c-3.6 3.6-8.4 4.3-12 2.5" fill="none" stroke="#5b9a34" stroke-width="1.5" stroke-linecap="round"/><path d="M8 29.5c-1.6-.4-2.6-1.6-2.6-3 1.5 0 2.6 1.2 2.6 3zM31.5 28c1.4-.9 1.8-2.4 1.2-3.6-1.4.6-1.9 2.2-1.2 3.6z" fill="#7cb84a"/></svg>
